<mxfile host="app.diagrams.net" modified="2024-01-01T03:08:36.929Z" agent="Mozilla/5.0 (Macintosh; Intel Mac OS X 10_15_7) AppleWebKit/537.36 (KHTML, like Gecko) Chrome/120.0.0.0 Safari/537.36" etag="CbUuXqKS8ogMUL4pSu1b" version="22.1.16" type="device">
  <diagram name="Page-1" id="mSbsEq8JNyIYG86Oy8Bk">
    <mxGraphModel dx="1475" dy="864" grid="1" gridSize="10" guides="1" tooltips="1" connect="1" arrows="1" fold="1" page="1" pageScale="1" pageWidth="827" pageHeight="1169" math="0" shadow="0">
      <root>
        <mxCell id="0" />
        <mxCell id="1" parent="0" />
        <mxCell id="Sy3r_Ziawrp9QfjnpfoK-3" value="Module A" style="rounded=1;whiteSpace=wrap;html=1;fillColor=#dae8fc;strokeColor=#6c8ebf;" vertex="1" parent="1">
          <mxGeometry x="40" y="240" width="80" height="40" as="geometry" />
        </mxCell>
        <mxCell id="Sy3r_Ziawrp9QfjnpfoK-4" value="Module B" style="rounded=1;whiteSpace=wrap;html=1;fillColor=#f8cecc;strokeColor=#b85450;" vertex="1" parent="1">
          <mxGeometry x="160" y="240" width="80" height="40" as="geometry" />
        </mxCell>
        <mxCell id="Sy3r_Ziawrp9QfjnpfoK-5" value="" style="endArrow=classic;html=1;rounded=0;entryX=0.25;entryY=1;entryDx=0;entryDy=0;exitX=0.5;exitY=0;exitDx=0;exitDy=0;" edge="1" parent="1" source="Sy3r_Ziawrp9QfjnpfoK-3" target="Sy3r_Ziawrp9QfjnpfoK-8">
          <mxGeometry width="50" height="50" relative="1" as="geometry">
            <mxPoint x="120" y="230" as="sourcePoint" />
            <mxPoint x="140" y="200" as="targetPoint" />
          </mxGeometry>
        </mxCell>
        <mxCell id="Sy3r_Ziawrp9QfjnpfoK-6" value="" style="endArrow=classic;html=1;rounded=0;exitX=0.5;exitY=0;exitDx=0;exitDy=0;entryX=0.75;entryY=1;entryDx=0;entryDy=0;" edge="1" parent="1" source="Sy3r_Ziawrp9QfjnpfoK-4" target="Sy3r_Ziawrp9QfjnpfoK-8">
          <mxGeometry width="50" height="50" relative="1" as="geometry">
            <mxPoint x="130" y="240" as="sourcePoint" />
            <mxPoint x="180" y="200" as="targetPoint" />
          </mxGeometry>
        </mxCell>
        <mxCell id="Sy3r_Ziawrp9QfjnpfoK-7" value="&lt;font style=&quot;font-size: 13px;&quot;&gt;Common-Environment Coupling&lt;/font&gt;" style="text;html=1;strokeColor=none;fillColor=none;align=center;verticalAlign=middle;whiteSpace=wrap;rounded=0;fontSize=18;fontStyle=1" vertex="1" parent="1">
          <mxGeometry x="30" y="120" width="220" height="40" as="geometry" />
        </mxCell>
        <mxCell id="Sy3r_Ziawrp9QfjnpfoK-8" value="Data" style="rounded=1;whiteSpace=wrap;html=1;fillColor=#ffe6cc;strokeColor=#d79b00;" vertex="1" parent="1">
          <mxGeometry x="80" y="160" width="120" height="40" as="geometry" />
        </mxCell>
        <mxCell id="Sy3r_Ziawrp9QfjnpfoK-10" value="" style="rounded=1;whiteSpace=wrap;html=1;fillColor=#dae8fc;strokeColor=#6c8ebf;" vertex="1" parent="1">
          <mxGeometry x="320" y="160" width="200" height="80" as="geometry" />
        </mxCell>
        <mxCell id="Sy3r_Ziawrp9QfjnpfoK-14" value="&lt;font style=&quot;font-size: 13px;&quot;&gt;Content Coupling&lt;/font&gt;" style="text;html=1;strokeColor=none;fillColor=none;align=center;verticalAlign=middle;whiteSpace=wrap;rounded=0;fontSize=18;fontStyle=1" vertex="1" parent="1">
          <mxGeometry x="320" y="120" width="200" height="40" as="geometry" />
        </mxCell>
        <mxCell id="Sy3r_Ziawrp9QfjnpfoK-16" value="Module A" style="text;html=1;strokeColor=none;fillColor=none;align=center;verticalAlign=middle;whiteSpace=wrap;rounded=0;" vertex="1" parent="1">
          <mxGeometry x="330" y="170" width="60" height="30" as="geometry" />
        </mxCell>
        <mxCell id="Sy3r_Ziawrp9QfjnpfoK-17" value="Module B" style="rounded=1;whiteSpace=wrap;html=1;fillColor=#f8cecc;strokeColor=#b85450;" vertex="1" parent="1">
          <mxGeometry x="440" y="185" width="62" height="45" as="geometry" />
        </mxCell>
        <mxCell id="Sy3r_Ziawrp9QfjnpfoK-19" value="&lt;font style=&quot;font-size: 13px;&quot;&gt;Control Coupling&lt;/font&gt;" style="text;html=1;strokeColor=none;fillColor=none;align=center;verticalAlign=middle;whiteSpace=wrap;rounded=0;fontSize=18;fontStyle=1" vertex="1" parent="1">
          <mxGeometry x="560" y="120" width="200" height="40" as="geometry" />
        </mxCell>
        <mxCell id="Sy3r_Ziawrp9QfjnpfoK-20" value="Module A" style="rounded=1;whiteSpace=wrap;html=1;fillColor=#dae8fc;strokeColor=#6c8ebf;" vertex="1" parent="1">
          <mxGeometry x="620" y="160" width="70" height="40" as="geometry" />
        </mxCell>
        <mxCell id="Sy3r_Ziawrp9QfjnpfoK-21" value="Module B" style="rounded=1;whiteSpace=wrap;html=1;fillColor=#f8cecc;strokeColor=#b85450;" vertex="1" parent="1">
          <mxGeometry x="615" y="225" width="80" height="40" as="geometry" />
        </mxCell>
        <mxCell id="Sy3r_Ziawrp9QfjnpfoK-22" value="flag a operation" style="rounded=1;whiteSpace=wrap;html=1;fillColor=#d5e8d4;strokeColor=#82b366;" vertex="1" parent="1">
          <mxGeometry x="570" y="290" width="80" height="40" as="geometry" />
        </mxCell>
        <mxCell id="Sy3r_Ziawrp9QfjnpfoK-23" value="flag b operation" style="rounded=1;whiteSpace=wrap;html=1;fillColor=#e1d5e7;strokeColor=#9673a6;" vertex="1" parent="1">
          <mxGeometry x="670" y="290" width="80" height="40" as="geometry" />
        </mxCell>
        <mxCell id="Sy3r_Ziawrp9QfjnpfoK-25" value="" style="endArrow=classic;html=1;rounded=0;exitX=0.5;exitY=1;exitDx=0;exitDy=0;entryX=0.5;entryY=0;entryDx=0;entryDy=0;" edge="1" parent="1" source="Sy3r_Ziawrp9QfjnpfoK-21" target="Sy3r_Ziawrp9QfjnpfoK-22">
          <mxGeometry width="50" height="50" relative="1" as="geometry">
            <mxPoint x="760" y="240" as="sourcePoint" />
            <mxPoint x="740" y="260" as="targetPoint" />
          </mxGeometry>
        </mxCell>
        <mxCell id="Sy3r_Ziawrp9QfjnpfoK-26" value="" style="endArrow=classic;html=1;rounded=0;entryX=0.5;entryY=0;entryDx=0;entryDy=0;exitX=0.5;exitY=1;exitDx=0;exitDy=0;" edge="1" parent="1" source="Sy3r_Ziawrp9QfjnpfoK-21" target="Sy3r_Ziawrp9QfjnpfoK-23">
          <mxGeometry width="50" height="50" relative="1" as="geometry">
            <mxPoint x="770" y="250" as="sourcePoint" />
            <mxPoint x="750" y="270" as="targetPoint" />
          </mxGeometry>
        </mxCell>
        <mxCell id="Sy3r_Ziawrp9QfjnpfoK-28" value="flags" style="text;html=1;strokeColor=none;fillColor=none;align=center;verticalAlign=middle;whiteSpace=wrap;rounded=0;" vertex="1" parent="1">
          <mxGeometry x="660" y="200" width="40" height="30" as="geometry" />
        </mxCell>
        <mxCell id="Sy3r_Ziawrp9QfjnpfoK-29" value="" style="endArrow=classic;html=1;rounded=0;entryX=0.5;entryY=0;entryDx=0;entryDy=0;exitX=0.5;exitY=1;exitDx=0;exitDy=0;" edge="1" parent="1" source="Sy3r_Ziawrp9QfjnpfoK-20" target="Sy3r_Ziawrp9QfjnpfoK-21">
          <mxGeometry width="50" height="50" relative="1" as="geometry">
            <mxPoint x="700" y="200" as="sourcePoint" />
            <mxPoint x="730" y="140" as="targetPoint" />
          </mxGeometry>
        </mxCell>
        <mxCell id="Sy3r_Ziawrp9QfjnpfoK-30" value="&lt;font style=&quot;font-size: 13px;&quot;&gt;Data Coupling&lt;/font&gt;" style="text;html=1;strokeColor=none;fillColor=none;align=center;verticalAlign=middle;whiteSpace=wrap;rounded=0;fontSize=18;fontStyle=1" vertex="1" parent="1">
          <mxGeometry x="40" y="360" width="200" height="40" as="geometry" />
        </mxCell>
        <mxCell id="Sy3r_Ziawrp9QfjnpfoK-31" value="Module A" style="rounded=1;whiteSpace=wrap;html=1;fillColor=#dae8fc;strokeColor=#6c8ebf;" vertex="1" parent="1">
          <mxGeometry x="80" y="400" width="120" height="40" as="geometry" />
        </mxCell>
        <mxCell id="Sy3r_Ziawrp9QfjnpfoK-32" value="Module B" style="rounded=1;whiteSpace=wrap;html=1;fillColor=#f8cecc;strokeColor=#b85450;" vertex="1" parent="1">
          <mxGeometry x="80" y="510" width="120" height="40" as="geometry" />
        </mxCell>
        <mxCell id="Sy3r_Ziawrp9QfjnpfoK-38" value="" style="endArrow=classic;html=1;rounded=0;entryX=0.5;entryY=0;entryDx=0;entryDy=0;exitX=0.5;exitY=1;exitDx=0;exitDy=0;" edge="1" parent="1" source="Sy3r_Ziawrp9QfjnpfoK-31" target="Sy3r_Ziawrp9QfjnpfoK-70">
          <mxGeometry width="50" height="50" relative="1" as="geometry">
            <mxPoint x="180" y="440" as="sourcePoint" />
            <mxPoint x="120" y="440" as="targetPoint" />
          </mxGeometry>
        </mxCell>
        <mxCell id="Sy3r_Ziawrp9QfjnpfoK-39" value="&lt;font style=&quot;font-size: 13px;&quot;&gt;Hybrid Coupling&lt;/font&gt;" style="text;html=1;strokeColor=none;fillColor=none;align=center;verticalAlign=middle;whiteSpace=wrap;rounded=0;fontSize=18;fontStyle=1" vertex="1" parent="1">
          <mxGeometry x="320" y="360" width="200" height="40" as="geometry" />
        </mxCell>
        <mxCell id="Sy3r_Ziawrp9QfjnpfoK-43" value="Data subset" style="text;html=1;strokeColor=default;fillColor=#fff2cc;align=center;verticalAlign=middle;whiteSpace=wrap;rounded=1;perimeterSpacing=2;" vertex="1" parent="1">
          <mxGeometry x="420" y="400" width="100" height="40" as="geometry" />
        </mxCell>
        <mxCell id="Sy3r_Ziawrp9QfjnpfoK-44" value="" style="endArrow=classic;html=1;rounded=0;exitX=0.5;exitY=0;exitDx=0;exitDy=0;entryX=0.4;entryY=1.075;entryDx=0;entryDy=0;entryPerimeter=0;" edge="1" parent="1" source="Sy3r_Ziawrp9QfjnpfoK-46" target="Sy3r_Ziawrp9QfjnpfoK-42">
          <mxGeometry width="50" height="50" relative="1" as="geometry">
            <mxPoint x="380" y="480" as="sourcePoint" />
            <mxPoint x="370" y="440" as="targetPoint" />
          </mxGeometry>
        </mxCell>
        <mxCell id="Sy3r_Ziawrp9QfjnpfoK-45" value="" style="endArrow=classic;html=1;rounded=0;exitX=0.5;exitY=0;exitDx=0;exitDy=0;entryX=0.5;entryY=1;entryDx=0;entryDy=0;" edge="1" parent="1" source="Sy3r_Ziawrp9QfjnpfoK-47" target="Sy3r_Ziawrp9QfjnpfoK-43">
          <mxGeometry width="50" height="50" relative="1" as="geometry">
            <mxPoint x="450" y="480" as="sourcePoint" />
            <mxPoint x="481" y="439" as="targetPoint" />
          </mxGeometry>
        </mxCell>
        <mxCell id="Sy3r_Ziawrp9QfjnpfoK-46" value="Module A" style="rounded=1;whiteSpace=wrap;html=1;fillColor=#dae8fc;strokeColor=#6c8ebf;" vertex="1" parent="1">
          <mxGeometry x="320" y="480" width="80" height="40" as="geometry" />
        </mxCell>
        <mxCell id="Sy3r_Ziawrp9QfjnpfoK-47" value="Module B" style="rounded=1;whiteSpace=wrap;html=1;fillColor=#f8cecc;strokeColor=#b85450;" vertex="1" parent="1">
          <mxGeometry x="431" y="480" width="80" height="40" as="geometry" />
        </mxCell>
        <mxCell id="Sy3r_Ziawrp9QfjnpfoK-48" value="&lt;font style=&quot;font-size: 13px;&quot;&gt;Pathological Coupling&lt;/font&gt;" style="text;html=1;strokeColor=none;fillColor=none;align=center;verticalAlign=middle;whiteSpace=wrap;rounded=0;fontSize=18;fontStyle=1" vertex="1" parent="1">
          <mxGeometry x="560" y="360" width="200" height="40" as="geometry" />
        </mxCell>
        <mxCell id="Sy3r_Ziawrp9QfjnpfoK-49" value="Module B" style="rounded=1;whiteSpace=wrap;html=1;fillColor=#f8cecc;strokeColor=#b85450;" vertex="1" parent="1">
          <mxGeometry x="680" y="400" width="80" height="40" as="geometry" />
        </mxCell>
        <mxCell id="Sy3r_Ziawrp9QfjnpfoK-50" value="Module A" style="rounded=1;whiteSpace=wrap;html=1;fillColor=#dae8fc;strokeColor=#6c8ebf;" vertex="1" parent="1">
          <mxGeometry x="560" y="400" width="80" height="40" as="geometry" />
        </mxCell>
        <mxCell id="Sy3r_Ziawrp9QfjnpfoK-51" value="operation a" style="rounded=1;whiteSpace=wrap;html=1;fillColor=#d5e8d4;strokeColor=#82b366;" vertex="1" parent="1">
          <mxGeometry x="560" y="542.5" width="80" height="40" as="geometry" />
        </mxCell>
        <mxCell id="Sy3r_Ziawrp9QfjnpfoK-52" value="operation b" style="rounded=1;whiteSpace=wrap;html=1;fillColor=#e1d5e7;strokeColor=#9673a6;" vertex="1" parent="1">
          <mxGeometry x="670" y="542.5" width="80" height="40" as="geometry" />
        </mxCell>
        <mxCell id="Sy3r_Ziawrp9QfjnpfoK-53" value="" style="endArrow=classic;html=1;rounded=0;entryX=0.5;entryY=0;entryDx=0;entryDy=0;" edge="1" parent="1" source="Sy3r_Ziawrp9QfjnpfoK-58" target="Sy3r_Ziawrp9QfjnpfoK-52">
          <mxGeometry width="50" height="50" relative="1" as="geometry">
            <mxPoint x="650" y="522.5" as="sourcePoint" />
            <mxPoint x="710" y="522.5" as="targetPoint" />
          </mxGeometry>
        </mxCell>
        <mxCell id="Sy3r_Ziawrp9QfjnpfoK-57" value="" style="endArrow=classic;html=1;rounded=0;entryX=0.5;entryY=0;entryDx=0;entryDy=0;exitX=0.544;exitY=0.522;exitDx=0;exitDy=0;exitPerimeter=0;" edge="1" parent="1" source="Sy3r_Ziawrp9QfjnpfoK-62" target="Sy3r_Ziawrp9QfjnpfoK-51">
          <mxGeometry width="50" height="50" relative="1" as="geometry">
            <mxPoint x="610" y="522.5" as="sourcePoint" />
            <mxPoint x="800" y="512.5" as="targetPoint" />
            <Array as="points" />
          </mxGeometry>
        </mxCell>
        <mxCell id="Sy3r_Ziawrp9QfjnpfoK-58" value="&lt;font style=&quot;font-size: 10px;&quot;&gt;execution path change&lt;/font&gt;" style="ellipse;whiteSpace=wrap;html=1;fillColor=#f5f5f5;fontColor=#333333;strokeColor=#666666;" vertex="1" parent="1">
          <mxGeometry x="560" y="472.5" width="80" height="37.5" as="geometry" />
        </mxCell>
        <mxCell id="Sy3r_Ziawrp9QfjnpfoK-62" value="" style="shape=mxgraph.sysml.x;fontColor=#CC0000;strokeColor=#CC0000;" vertex="1" parent="1">
          <mxGeometry x="595" y="515" width="10" height="10" as="geometry" />
        </mxCell>
        <mxCell id="Sy3r_Ziawrp9QfjnpfoK-65" value="" style="shape=mxgraph.sysml.x;fontColor=#CC0000;strokeColor=#CC0000;" vertex="1" parent="1">
          <mxGeometry x="595" y="450" width="10" height="10" as="geometry" />
        </mxCell>
        <mxCell id="Sy3r_Ziawrp9QfjnpfoK-69" value="" style="endArrow=none;html=1;rounded=0;" edge="1" parent="1">
          <mxGeometry width="50" height="50" relative="1" as="geometry">
            <mxPoint x="599.5" y="455" as="sourcePoint" />
            <mxPoint x="600.5" y="440" as="targetPoint" />
          </mxGeometry>
        </mxCell>
        <mxCell id="Sy3r_Ziawrp9QfjnpfoK-56" value="" style="endArrow=classic;html=1;rounded=0;exitX=0.5;exitY=1;exitDx=0;exitDy=0;entryX=0.5;entryY=0;entryDx=0;entryDy=0;" edge="1" parent="1" source="Sy3r_Ziawrp9QfjnpfoK-49" target="Sy3r_Ziawrp9QfjnpfoK-58">
          <mxGeometry width="50" height="50" relative="1" as="geometry">
            <mxPoint x="670" y="440" as="sourcePoint" />
            <mxPoint x="650" y="480" as="targetPoint" />
          </mxGeometry>
        </mxCell>
        <mxCell id="Sy3r_Ziawrp9QfjnpfoK-42" value="Data subset" style="text;html=1;strokeColor=default;fillColor=#ffe6cc;align=center;verticalAlign=middle;whiteSpace=wrap;rounded=1;" vertex="1" parent="1">
          <mxGeometry x="320" y="400" width="100" height="40" as="geometry" />
        </mxCell>
        <mxCell id="Sy3r_Ziawrp9QfjnpfoK-70" value="Data" style="rounded=1;whiteSpace=wrap;html=1;fillColor=#ffe6cc;strokeColor=#d79b00;" vertex="1" parent="1">
          <mxGeometry x="90" y="460" width="100" height="30" as="geometry" />
        </mxCell>
        <mxCell id="Sy3r_Ziawrp9QfjnpfoK-71" value="" style="endArrow=classic;html=1;rounded=0;entryX=0.5;entryY=0;entryDx=0;entryDy=0;exitX=0.5;exitY=1;exitDx=0;exitDy=0;" edge="1" parent="1" source="Sy3r_Ziawrp9QfjnpfoK-70" target="Sy3r_Ziawrp9QfjnpfoK-32">
          <mxGeometry width="50" height="50" relative="1" as="geometry">
            <mxPoint x="210" y="543" as="sourcePoint" />
            <mxPoint x="130" y="510" as="targetPoint" />
          </mxGeometry>
        </mxCell>
      </root>
    </mxGraphModel>
  </diagram>
</mxfile>
